<svg xmlns="http://www.w3.org/2000/svg" viewBox="0 0 400 60" className="logo">
  <g id="SvgjsG1007" featurekey="symbolFeature-0" transform="matrix(0.6328468124176712,0,0,0.6328468124176712,0.04293348923082397,-0.0464593430429979)" fill="#B22727"><title xmlns="http://www.w3.org/2000/svg"></title>
    <path xmlns="http://www.w3.org/2000/svg" d="M37.7,81.8c-1.2-0.8-2.4-1.5-3.5-2.4c-1.9-1.4-3.7-2.9-5.6-4.3c-3.2-2.5-6.9-4.3-10.8-5.5c-4.1-1.2-8-2.6-11.9-4.4  c-1.6-0.7-2.9-1.9-4-3.3c-1.1-1.5-1.8-3.3-1.9-5.2c-0.3-3.3,0.4-6.6,2-9.5c1.2-2.2,3.1-3.9,5.3-5c2.4-1.2,5-2.1,7.7-2.6  c4.8-1.1,9.5-2.7,13.9-4.8c1.3-0.7,2.6-1.4,4-2c2.8-1.4,6.1-1.4,9-0.2c1.6,0.6,3,1.5,4.3,2.6c1.8,1.7,2.9,3.9,3.1,6.3  c0.8,5.1,2.1,10,3.9,14.8c1.1,2.9,2.3,5.8,3.3,8.8c0.8,2.2,1.1,4.5,0.8,6.8c-0.5,3.1-1.9,5.9-4.2,8.1c-2.1,2.2-4.9,3.6-7.9,3.9  c-1.2,0-2.3-0.1-3.5-0.3c-0.3,0-0.7-0.1-1-0.2L37.7,81.8z"></path><path xmlns="http://www.w3.org/2000/svg" d="M50.2,1.1c0.7,0.7,1.3,1.4,1.8,2.2c1.2,1.9,1.6,4.2,1.3,6.4c-0.4,3.8-2.1,7.4-4.9,10c-1.7,1.8-4.1,2.9-6.6,3  c-2.6,0-5-1.5-6-3.9c-1.2-2.9-1.3-6.1-0.2-9c1-3.1,2.9-5.9,5.6-7.8c2-1.7,4.7-2.3,7.2-1.7c0.1,0,0.2,0,0.2,0L50.2,1.1z"></path><path xmlns="http://www.w3.org/2000/svg" d="M28.1,23.9c-1.3,2.9-3.7,5.3-6.7,6.5c-3.6,1.6-7.8,0-9.4-3.6c-0.2-0.4-0.3-0.7-0.4-1.1c-1-3.3-0.7-6.8,0.7-9.9  c1-2.5,2.8-4.7,5-6.3c1.7-1.3,3.8-1.9,5.9-1.6c2.5,0.3,4.7,2,5.6,4.4c1.6,3.6,1.1,7.2-0.3,10.8C28.4,23.3,28.3,23.6,28.1,23.9z"></path><path xmlns="http://www.w3.org/2000/svg" d="M54.5,19.5c1.8-3.4,4.7-6,8.3-7.3c2-0.8,4.2-0.8,6.2-0.1c1.4,0.5,2.5,1.5,3,2.9c2,4.9,0.8,10.5-3,14.1c-2,2.1-4.6,3.5-7.5,4  c-3.9,0.8-7.7-1.8-8.5-5.7c-0.1-0.6-0.2-1.3-0.1-1.9C52.9,23.4,53.5,21.3,54.5,19.5z"></path><path xmlns="http://www.w3.org/2000/svg" d="M57.7,45c1.8-3.4,3.6-5.7,6.4-7.2c1.9-1,4.1-1.2,6.2-0.6c1,0.3,1.9,0.9,2.5,1.8c2.7,3,3.5,7.1,2.3,10.9  c-0.7,2.6-2.1,5-4.1,6.9c-3,2.8-7,3-10.4,0.9c-1.7-1-3-2.5-3.7-4.4c-0.5-1.5-0.7-3.1-0.3-4.6C56.9,47.3,57.5,45.8,57.7,45z"></path>
  </g>
  <g id="SvgjsG1008" featurekey="nameFeature-0" transform="matrix(1.3903750355128255,0,0,1.3903750355128255,68,-9.57327450728496)" fill="#B22727">
    <path d="M4.16 37.52 l1.76 0 l1.4 -3.36 l10.44 0.04 l2.56 5.8 l7.36 -0.04 l-12.6 -27.96 l-2.56 0 l-12.52 27.96 l7.8 0 l1.36 -3.2 l7.96 0 l-0.6 -1.36 l-8.24 0 l-1.28 3.16 l-4.76 0 l11.08 -25.2 l0.96 0 l11.12 25.2 l-4.24 0 l-2.56 -5.72 l-12.4 0 z M8.92 30.48 l4.88 -11.64 l8.2 18.64 l1.64 0 l-9.84 -21.92 l-7.2 16.16 l11.6 0 l-4.4 -9.72 l-3.04 7.32 l1.56 0 l1.48 -3.64 l2.2 4.8 l-7.08 0 z M56.765 16.04 c-2.4 -2.52 -5.48 -4 -8.48 -4 l-11.72 0 l0 1.44 l11.72 0.04 c1.88 0 3.68 0.6 5.4 1.76 c3.36 2.36 5.6 6.6 5.6 10.72 c0 2.16 -0.48 4.16 -1.48 6.04 c-2 3.72 -6.04 6.44 -9.52 6.44 l-10.28 0 l0 -22.44 l9.96 0.04 c1.44 0 2.84 0.44 4.16 1.36 c2.68 1.8 4.44 5.24 4.44 8.56 c0 2.44 -1.04 4.96 -2.92 6.92 c-1.76 1.76 -3.88 2.88 -5.64 2.88 l-4.56 0 l0.04 -15.8 l-1.4 0 l-0.04 16.52 l0 0.72 l5.96 0 c2.2 0 4.76 -1.24 6.72 -3.32 c2.12 -2.28 3.28 -5.08 3.28 -7.92 c0 -2.88 -1.12 -5.76 -3.16 -8 c-2.2 -2.2 -4.6 -3.4 -6.88 -3.4 l-11.4 0 l0 25.36 l11.72 0 c2.88 0 6 -1.48 8.36 -4 c2.6 -2.68 4.04 -6.24 4.04 -9.96 s-1.36 -7.24 -3.92 -9.96 z M47.845000000000006 34.519999999999996 c1.12 0 2.28 -0.44 3.52 -1.28 c2.44 -1.72 4 -4.6 4 -7.28 c0 -1.44 -0.36 -2.84 -1.04 -4.2 c-1.4 -2.68 -3.92 -4.36 -6.48 -4.36 l-8.6 0.04 l0.04 19.88 l1.44 0 l0 -18.48 l7.12 -0.04 c0.92 0 1.88 0.36 2.88 1.04 c2.04 1.44 3.2 3.68 3.2 6.12 c0 1.64 -0.76 3.48 -2 4.88 s-2.76 2.24 -4.08 2.24 l-2.84 0 l0 1.44 l2.84 0 z M82.49 40 c-2.44 0 -4.76 -0.64 -6.96 -1.92 c-4.4 -2.52 -7.12 -7.16 -7.12 -12.12 c0 -2.48 0.64 -4.8 1.92 -7 c2.52 -4.32 7.24 -7.04 12.16 -7.04 c2.44 0 4.8 0.64 7 1.88 c4.4 2.56 7.04 7.32 7.04 12.16 c0 2.44 -0.64 4.72 -1.88 6.92 c-2.56 4.4 -7.2 7.12 -12.16 7.12 z M82.49 13.32 c-2.28 0 -4.4 0.56 -6.32 1.68 c-3.88 2.24 -6.28 6.36 -6.28 10.96 c0 2.28 0.56 4.4 1.68 6.32 c2.24 3.88 6.32 6.28 10.92 6.28 c2.28 0 4.4 -0.56 6.36 -1.68 c3.88 -2.24 6.28 -6.32 6.28 -10.92 c0 -2.28 -0.56 -4.4 -1.68 -6.36 c-2.24 -3.88 -6.48 -6.28 -10.96 -6.28 z M82.49 37.28 c-2 0 -3.88 -0.52 -5.68 -1.52 c-3.56 -2.04 -5.76 -5.76 -5.76 -9.8 c0 -2.04 0.52 -3.92 1.52 -5.68 c2.04 -3.52 5.64 -5.6 9.92 -5.6 c2.16 0 4.12 0.48 5.84 1.44 c3.44 1.92 5.44 5.52 5.44 9.84 c0 2.04 -0.48 3.92 -1.44 5.64 c-1.96 3.48 -5.8 5.68 -9.84 5.68 z M82.49 16.08 c-1.8 0 -3.44 0.44 -4.96 1.32 c-3.08 1.76 -4.96 4.92 -4.96 8.56 c0 1.76 0.44 3.4 1.36 4.92 c1.76 3.08 4.88 5 8.56 5 c1.8 0 3.44 -0.44 4.96 -1.36 c3 -1.76 4.92 -5.04 4.92 -8.56 c0 -1.8 -0.44 -3.48 -1.32 -5 c-1.76 -3.04 -5.08 -4.88 -8.56 -4.88 z M82.49 34.68 c-1.56 0 -3.04 -0.4 -4.36 -1.16 c-2.68 -1.56 -4.4 -4.52 -4.4 -7.56 c0 -1.56 0.4 -3.04 1.2 -4.4 c1.56 -2.72 4.32 -4.28 7.56 -4.28 c1.56 0 3 0.4 4.32 1.16 c2.68 1.56 4.24 4.28 4.24 7.52 c0 1.6 -0.36 3.04 -1.08 4.36 c-1.48 2.64 -4.32 4.36 -7.48 4.36 z M82.49 18.72 c-1.28 0 -2.48 0.32 -3.6 0.96 c-2.24 1.32 -3.68 3.68 -3.68 6.28 c0 1.28 0.32 2.48 0.96 3.56 c1.28 2.24 3.6 3.6 6.32 3.6 c1.32 0 2.56 -0.32 3.64 -0.96 c2.2 -1.28 3.52 -3.64 3.52 -6.2 c0 -1.32 -0.32 -2.52 -0.96 -3.64 c-1.28 -2.24 -3.64 -3.6 -6.2 -3.6 z M104.095 11.96 l1.48 0 l0 26.56 l3.96 0 l0 -9.64 l4.92 0 c1.8 0 3.28 -0.4 4.52 -1.24 c1.92 -1.16 2.92 -3.52 2.92 -6.6 c0 -4.96 -2.8 -7.6 -7.96 -7.6 l-5.72 0 l0 9.96 l5.12 0 c2.08 0 2.88 -0.64 2.88 -2.36 c0 -1.4 -0.68 -2.08 -2.08 -2.08 l-3.04 0 l0 3.24 l-1.48 0.04 l0 -4.68 l4.52 0 c2.2 0 3.44 1.28 3.44 3.48 c0 2.56 -1.4 3.84 -4.24 3.84 l-6.48 0 l0 -12.92 l7.08 0 c5.8 0 9.36 3.36 9.36 9.08 c0 5.92 -3.24 9.32 -8.84 9.32 l-3.44 0 l0 9.64 l-6.92 0 l0 -28.04 z M106.855 26.2 l6.72 0 c3.72 0 5.52 -1.6 5.52 -4.96 c0 -3.16 -1.72 -5 -4.48 -5 l-5 0 l0 -1.44 l5 0 c1.12 0 2.16 0.24 3.08 0.76 c1.88 1 2.84 3 2.84 5.68 c0 4.16 -2.32 6.36 -6.96 6.36 l-5.36 0 l0 10 l-1.36 0 l0 -11.4 z M140.46 17.2 l9.56 0 l0 -3.8 l-17 0 l0 1.24 l15.64 0 l0 1.44 l-17.08 0 l0 -4.12 l19.88 0 l0 6.68 l-9.56 0 l0 18.72 l-1.44 0 l0 -20.16 z M137.78 18.64 l-6.2 0 l0 -1.44 l7.64 0 l0 21.32 l4 0 l0 -18.64 l1.44 0 l0 20.12 l-6.88 0 l0 -21.36 z M165.46499999999997 11.96 l11.6 21.8 l4.84 -8.96 l2.32 15.2 l1.44 0 l-3 -19.68 l-5.6 10.36 l-9.96 -18.72 l-1.64 0 z M178.225 22.72 l-1.88 3.48 l0.84 1.52 l2.64 -5 l3.52 -6.56 l0.12 -0.28 l1.32 -2.44 l0.96 0 l0.12 0.96 l3 19.52 l0.68 4.6 l-1.32 0 l-3.04 -19.8 l-0.36 -2.4 l-1.12 2.12 l3.2 20.96 l-0.04 0 l0.12 0.6 l4.24 0 l-4.24 -28.04 l-3.08 0 z M175.785 34.12 l-11.48 -21.64 l-0.24 -0.4 l-4.24 27.92 l7 0 l1.28 -8.28 l-0.84 -1.56 l-0.32 -0.6 l-1.36 8.96 l-4.08 0 l3.36 -21.92 l12.24 23.04 l4.36 -8.28 l-0.32 -2.12 l-0.04 -0.28 l-4 7.6 z M166.30499999999998 25.240000000000002 l7.84 14.76 l1.64 0 l-10.24 -19.24 l-2.6 16.72 l1.44 0 z M199.07 12.079999999999998 l1.44 0 l0 26.48 l15.32 0 l0 -4 l-11.28 0 l0 -3.84 l1.44 0 l0 2.4 l11.28 0 l0 6.88 l-18.2 0 l0 -27.92 z M201.79 12.079999999999998 l15.28 0 l0 6.84 l-9.6 0 l0 -1.44 l8.16 0 l0 -3.96 l-12.4 0 l0 11.56 l9.32 0 l0 1.44 l-10.76 0 l0 -14.44 z M201.79 27.8 l12.16 0 l0 -4 l-9.4 0 l0 -9.08 l9.68 0 l0 1.44 l-8.24 0 l0 6.2 l9.4 0 l0 6.88 l-12.16 0 l0 6.64 l11.2 0 l0 1.44 l-12.64 0 l0 -9.52 z"></path>
  </g>
</svg>